GIL06_xslow1_ik
nRows=3
nColumns=375

# SIMM Motion File Header:
name GIL06_xslow1_ik
datacolumns 375
datarows 3
otherdata 1
range 1.58333000 1.60000000
endheader
time	pelvis_tx	pelvis_ty	pelvis_tz	pelvis_tilt	pelvis_list	pelvis_rotation	hip_flexion_r	hip_adduction_r	hip_rotation_r	knee_angle_r	ankle_angle_r	hip_flexion_l	hip_adduction_l	hip_rotation_l	knee_angle_l	ankle_angle_l	lumbar_extension	lumbar_bending	lumbar_rotation	subtalar_angle_r	mtp_angle_r	subtalar_angle_l	mtp_angle_l	asis_r_px	asis_r_py	asis_r_pz	asis_l_px	asis_l_py	asis_l_pz	midasis_px	midasis_py	midasis_pz	psis_r_px	psis_r_py	psis_r_pz	psis_l_px	psis_l_py	psis_l_pz	hip_r_px	hip_r_py	hip_r_pz	hip_l_px	hip_l_py	hip_l_pz	midhip_px	midhip_py	midhip_pz	epicondLat_r_px	epicondLat_r_py	epicondLat_r_pz	epicondMed_r_px	epicondMed_r_py	epicondMed_r_pz	thighwand_r_px	thighwand_r_py	thighwand_r_pz	upperleg1_r_px	upperleg1_r_py	upperleg1_r_pz	upperleg2_r_px	upperleg2_r_py	upperleg2_r_pz	malleolusLat_r_px	malleolusLat_r_py	malleolusLat_r_pz	malleolusMedv_r_px	malleolusMedv_r_py	malleolusMedv_r_pz	shankwand_r_px	shankwand_r_py	shankwand_r_pz	lowerleg1_r_px	lowerleg1_r_py	lowerleg1_r_pz	knee_r_px	knee_r_py	knee_r_pz	ankle_r_px	ankle_r_py	ankle_r_pz	toe_r_px	toe_r_py	toe_r_pz	epicondLat_l_px	epicondLat_l_py	epicondLat_l_pz	epicondMed_l_px	epicondMed_l_py	epicondMed_l_pz	thighwand_l_px	thighwand_l_py	thighwand_l_pz	upperleg1_l_px	upperleg1_l_py	upperleg1_l_pz	upperleg2_l_px	upperleg2_l_py	upperleg2_l_pz	malleolusLat_l_px	malleolusLat_l_py	malleolusLat_l_pz	malleolusMedv_l_px	malleolusMedv_l_py	malleolusMedv_l_pz	shankwand_l_px	shankwand_l_py	shankwand_l_pz	lowerleg1_l_px	lowerleg1_l_py	lowerleg1_l_pz	knee_l_px	knee_l_py	knee_l_pz	ankle_l_px	ankle_l_py	ankle_l_pz	toe_l_px	toe_l_py	toe_l_pz	subclavicle_r_px	subclavicle_r_py	subclavicle_r_pz	subclavicle_l_px	subclavicle_l_py	subclavicle_l_pz	neck_px	neck_py	neck_pz	sternalnotch_px	sternalnotch_py	sternalnotch_pz	xyphoidprocess_px	xyphoidprocess_py	xyphoidprocess_pz	midhip_tx	midhip_ty	midhip_tz	hip_r_tx	hip_r_ty	hip_r_tz	hip_l_tx	hip_l_ty	hip_l_tz	knee_r_tx	knee_r_ty	knee_r_tz	knee_l_tx	knee_l_ty	knee_l_tz	ankle_r_tx	ankle_r_ty	ankle_r_tz	ankle_l_tx	ankle_l_ty	ankle_l_tz	midasis_tx	midasis_ty	midasis_tz	asis_r_tx	asis_r_ty	asis_r_tz	asis_l_tx	asis_l_ty	asis_l_tz	psis_r_tx	psis_r_ty	psis_r_tz	psis_l_tx	psis_l_ty	psis_l_tz	epicondLat_r_tx	epicondLat_r_ty	epicondLat_r_tz	epicondLat_l_tx	epicondLat_l_ty	epicondLat_l_tz	epicondMed_r_tx	epicondMed_r_ty	epicondMed_r_tz	epicondMed_l_tx	epicondMed_l_ty	epicondMed_l_tz	malleolusLat_r_tx	malleolusLat_r_ty	malleolusLat_r_tz	malleolusLat_l_tx	malleolusLat_l_ty	malleolusLat_l_tz	malleolusMedv_r_tx	malleolusMedv_r_ty	malleolusMedv_r_tz	malleolusMedv_l_tx	malleolusMedv_l_ty	malleolusMedv_l_tz	neck_tx	neck_ty	neck_tz	subclavicle_r_tx	subclavicle_r_ty	subclavicle_r_tz	subclavicle_l_tx	subclavicle_l_ty	subclavicle_l_tz	sternalnotch_tx	sternalnotch_ty	sternalnotch_tz	xyphoidprocess_tx	xyphoidprocess_ty	xyphoidprocess_tz	thighwand_r_tx	thighwand_r_ty	thighwand_r_tz	thighwand_l_tx	thighwand_l_ty	thighwand_l_tz	upperleg1_r_tx	upperleg1_r_ty	upperleg1_r_tz	upperleg1_l_tx	upperleg1_l_ty	upperleg1_l_tz	upperleg2_r_tx	upperleg2_r_ty	upperleg2_r_tz	upperleg2_l_tx	upperleg2_l_ty	upperleg2_l_tz	shankwand_r_tx	shankwand_r_ty	shankwand_r_tz	shankwand_l_tx	shankwand_l_ty	shankwand_l_tz	lowerleg1_r_tx	lowerleg1_r_ty	lowerleg1_r_tz	lowerleg1_l_tx	lowerleg1_l_ty	lowerleg1_l_tz	toe_r_tx	toe_r_ty	toe_r_tz	toe_l_tx	toe_l_ty	toe_l_tz	ground_force_vx	ground_force_vy	ground_force_vz	ground_force_px	ground_force_py	ground_force_pz	ground_force_vx	ground_force_vy	ground_force_vz	ground_force_px	ground_force_py	ground_force_pz	ground_torque_x	ground_torque_y	ground_torque_z	ground_torque_x	ground_torque_y	ground_torque_z	ground_marker_px	ground_marker_py	ground_marker_pz	ground_marker_px	ground_marker_py	ground_marker_pz	ground_marker_px	ground_marker_py	ground_marker_pz	ground_marker_px	ground_marker_py	ground_marker_pz	ground_marker_px	ground_marker_py	ground_marker_pz	ground_marker_px	ground_marker_py	ground_marker_pz	ground_marker_px	ground_marker_py	ground_marker_pz	ground_marker_px	ground_marker_py	ground_marker_pz	ground_marker_px	ground_marker_py	ground_marker_pz	ground_marker_px	ground_marker_py	ground_marker_pz	ground_marker_px	ground_marker_py	ground_marker_pz	ground_marker_px	ground_marker_py	ground_marker_pz	ground_marker_px	ground_marker_py	ground_marker_pz	ground_marker_px	ground_marker_py	ground_marker_pz	ground_marker_px	ground_marker_py	ground_marker_pz	ground_marker_px	ground_marker_py	ground_marker_pz	ground_marker_px	ground_marker_py	ground_marker_pz	ground_marker_px	ground_marker_py	ground_marker_pz	ground_marker_px	ground_marker_py	ground_marker_pz	ground_marker_px	ground_marker_py	ground_marker_pz	ground_marker_px	ground_marker_py	ground_marker_pz	ground_marker_px	ground_marker_py	ground_marker_pz	ground_marker_px	ground_marker_py	ground_marker_pz	ground_marker_px	ground_marker_py	ground_marker_pz	ground_marker_px	ground_marker_py	ground_marker_pz	ground_marker_px	ground_marker_py	ground_marker_pz	ground_marker_px	ground_marker_py	ground_marker_pz	ground_marker_px	ground_marker_py	ground_marker_pz	ground_marker_px	ground_marker_py	ground_marker_pz	ground_marker_px	ground_marker_py	ground_marker_pz	ground_marker_px	ground_marker_py	ground_marker_pz	ground_marker_px	ground_marker_py	ground_marker_pz	ground_marker_px	ground_marker_py	ground_marker_pz	ground_marker_px	ground_marker_py	ground_marker_pz	ground_marker_px	ground_marker_py	ground_marker_pz	ground_marker_px	ground_marker_py	ground_marker_pz	ground_marker_px	ground_marker_py	ground_marker_pz
      1.58333000	      0.83672244	      0.83513750	     -0.18847744	     -5.57776837	     -2.74289360	     -0.05814146	      4.58295113	      9.26227133	     -0.46555685	     -1.46893780	     -1.08866454	     27.73595684	    -10.43324856	      3.02456606	    -54.16593969	      7.09758931	      7.25613526	     -0.04721599	     13.42297674	      0.00000000	      0.00000000	      0.00000000	      0.00000000	      0.89298665	      0.82380639	     -0.07098334	      0.89066510	      0.81134600	     -0.31657713	      0.85010787	      0.83383095	     -0.18846380	      0.66194928	      0.92902258	     -0.16342375	      0.65705851	      0.92498081	     -0.21830217	      0.76325333	      0.78243825	     -0.10538557	      0.76266916	      0.77478162	     -0.26562961	      0.76296125	      0.77860993	     -0.18550759	      0.75686015	      0.39421741	     -0.08994014	      0.73859646	      0.42010293	     -0.23155855	      0.91748693	      0.54524083	     -0.07341193	      0.87925736	      0.57045212	     -0.09035337	      0.85093098	      0.49966925	     -0.10607649	      0.72576915	      0.04009825	     -0.14313604	      0.74309667	      0.05500663	     -0.21639295	      0.82367783	      0.18543392	     -0.14486200	      0.77852283	      0.19447556	     -0.15745560	      0.75277437	      0.41841023	     -0.14704854	      0.73684811	      0.05279243	     -0.18893319	      0.84379937	      0.02019300	     -0.17201158	      0.89540906	      0.43632773	     -0.38454144	      0.90664746	      0.40388459	     -0.23994734	      0.99936057	      0.65995155	     -0.30577352	      0.94938366	      0.65754252	     -0.30983499	      0.95968802	      0.58474309	     -0.31708209	      0.68024757	      0.13164561	     -0.39690132	      0.70781317	      0.12444051	     -0.32219348	      0.72433141	      0.24299810	     -0.44728490	      0.73675595	      0.24298796	     -0.39999875	      0.90435685	      0.43251384	     -0.31742503	      0.70691800	      0.12401838	     -0.35657589	      0.78368905	      0.06676311	     -0.39080967	      0.80321448	      1.28011581	     -0.17184158	      0.79224110	      1.28002120	     -0.25303385	      0.65890306	      1.32116349	     -0.19152756	      0.78078240	      1.27148109	     -0.22242228	      0.84548838	      1.20924843	     -0.22988678	      0.75885700	      0.77022100	     -0.19733800	      0.73981100	      0.77698500	     -0.11817100	      0.73914800	      0.77272100	     -0.27374100	      0.73896400	      0.42091700	     -0.16447800	      0.88683900	      0.41964900	     -0.34264900	      0.72973400	      0.06034000	     -0.19303400	      0.70361800	      0.11264300	     -0.32100300	      0.86833700	      0.84501600	     -0.19842700	      0.86887100	      0.84845600	     -0.07290900	      0.86780300	      0.84157500	     -0.32394600	      0.62482600	      0.92273600	     -0.16570900	      0.62137600	      0.91803500	     -0.22052800	      0.73867000	      0.41169700	     -0.09357600	      0.88517700	      0.43267100	     -0.41293300	      0.73095400	      0.43155700	     -0.23706200	      0.89510100	      0.39408200	     -0.25045600	      0.71934100	      0.05767800	     -0.15605900	      0.68758000	      0.11971900	     -0.35640000	      0.73434000	      0.07404700	     -0.22871500	      0.70981400	      0.13051000	     -0.28056700	      0.67164200	      1.34843300	     -0.19625000	      0.79547300	      1.27133200	     -0.16816200	      0.78976200	      1.27293600	     -0.24952600	      0.77460800	      1.26837800	     -0.22008100	      0.82015900	      1.19069600	     -0.22337900	      0.89661800	      0.55101500	     -0.06417500	      0.98228400	      0.65516600	     -0.30538600	      0.86355900	      0.57792200	     -0.08411500	      0.93335100	      0.64969100	     -0.31627600	      0.83339100	      0.50803200	     -0.10170000	      0.94854900	      0.57723700	     -0.32130900	      0.81326400	      0.20055100	     -0.15257300	      0.73501400	      0.21255100	     -0.43045400	      0.76718400	      0.20926000	     -0.16396200	      0.74427500	      0.22383600	     -0.38405200	      0.83707300	      0.04377200	     -0.18507600	      0.78673500	      0.06639000	     -0.34383900	    -19.43079714	    800.79942621	    -27.54866167	      0.77658746	      0.00000000	     -0.17414645	      0.00000000	      0.00000000	      0.00000000	      0.44902380	      0.00000000	     -0.28392966	      0.00000000	      0.70751941	      0.00000000	      0.00000000	      0.00000000	      0.00000000	      0.75885695	      0.77022052	     -0.19733757	      0.73981053	      0.77698481	     -0.11817126	      0.73914844	      0.77272111	     -0.27374053	      0.73896384	      0.42091724	     -0.16447848	      0.88683921	      0.41964862	     -0.34264877	      0.72973412	      0.06034033	     -0.19303426	      0.70361811	      0.11264331	     -0.32100338	      0.86833709	      0.84501553	     -0.19842725	      0.86887127	      0.84845567	     -0.07290858	      0.86780292	      0.84157544	     -0.32394591	      0.62482560	      0.92273647	     -0.16570939	      0.62137586	      0.91803503	     -0.22052804	      0.73866981	      0.41169697	     -0.09357610	      0.88517714	      0.43267056	     -0.41293332	      0.73095417	      0.43155667	     -0.23706162	      0.89510059	      0.39408150	     -0.25045583	      0.71934068	      0.05767816	     -0.15605941	      0.68757963	      0.11971939	     -0.35640043	      0.73434025	      0.07404739	     -0.22871456	      0.70981407	      0.13050984	     -0.28056672	      0.67164236	      1.34843349	     -0.19625045	      0.79547340	      1.27133238	     -0.16816200	      0.78976184	      1.27293587	     -0.24952628	      0.77460831	      1.26837826	     -0.22008139	      0.82015932	      1.19069648	     -0.22337855	      0.89661831	      0.55101544	     -0.06417488	      0.98228383	      0.65516597	     -0.30538577	      0.86355937	      0.57792163	     -0.08411495	      0.93335110	      0.64969146	     -0.31627616	      0.83339089	      0.50803214	     -0.10169988	      0.94854867	      0.57723749	     -0.32130933	      0.81326431	      0.20055118	     -0.15257268	      0.73501360	      0.21255113	     -0.43045381	      0.76718402	      0.20926028	     -0.16396162	      0.74427468	      0.22383611	     -0.38405222	      0.83707333	      0.04377184	     -0.18507574	      0.78673500	      0.06639000	     -0.34383854
      1.59167000	      0.83988600	      0.83504848	     -0.18794634	     -5.68905242	     -2.74219968	     -0.20777691	      4.44635000	      9.29080776	     -0.52284554	     -1.45991945	     -0.91269084	     28.27342911	    -10.19103502	      3.63232874	    -52.44790285	      7.70480459	      7.31220208	     -0.05689294	     13.57469854	      0.00000000	      0.00000000	      0.00000000	      0.00000000	      0.89582420	      0.82364410	     -0.07030376	      0.89411782	      0.81112744	     -0.31589974	      0.85326895	      0.83371761	     -0.18789762	      0.66521931	      0.92925713	     -0.16336939	      0.66046373	      0.92521073	     -0.21825935	      0.76610568	      0.78250328	     -0.10503285	      0.76592375	      0.77480824	     -0.26527602	      0.76601472	      0.77865576	     -0.18515443	      0.75798094	      0.39431023	     -0.08970317	      0.74035525	      0.42030554	     -0.23138229	      0.91919504	      0.54463572	     -0.07254280	      0.88113775	      0.57001542	     -0.08962013	      0.85256497	      0.49935887	     -0.10546510	      0.72561899	      0.04033637	     -0.14309775	      0.74328164	      0.05518867	     -0.21628599	      0.82413666	      0.18526414	     -0.14442420	      0.77906695	      0.19449618	     -0.15718408	      0.75421080	      0.41853366	     -0.14682056	      0.73692149	      0.05299444	     -0.18885026	      0.84375373	      0.02026591	     -0.17143327	      0.90234877	      0.43716892	     -0.38231805	      0.91183685	      0.40481341	     -0.23757893	      1.00384163	      0.66144192	     -0.30220108	      0.95393992	      0.65872283	     -0.30693563	      0.96479173	      0.58598777	     -0.31402828	      0.69840268	      0.12505965	     -0.39847519	      0.72488411	      0.11879890	     -0.32329158	      0.73934729	      0.23795467	     -0.44806872	      0.75092639	      0.23835917	     -0.40057019	      0.91013462	      0.43372033	     -0.31504068	      0.72461257	      0.11836748	     -0.35768445	      0.80455687	      0.06481922	     -0.39062994	      0.80689514	      1.28014318	     -0.17174103	      0.79591448	      1.28001964	     -0.25293227	      0.66262179	      1.32132096	     -0.19143426	      0.78445023	      1.27150555	     -0.22231554	      0.84909527	      1.20920664	     -0.22975543	      0.76190000	      0.77019500	     -0.19725300	      0.74267600	      0.77698200	     -0.11814400	      0.74234700	      0.77270700	     -0.27371400	      0.74049100	      0.42088900	     -0.16455200	      0.89315100	      0.42052000	     -0.34102800	      0.72989900	      0.06038700	     -0.19317500	      0.72111200	      0.10748200	     -0.32109600	      0.87148800	      0.84479800	     -0.19812400	      0.87175300	      0.84824800	     -0.07259700	      0.87122300	      0.84134800	     -0.32365100	      0.62798600	      0.92293400	     -0.16559800	      0.62460100	      0.91825900	     -0.22046700	      0.73992900	      0.41165200	     -0.09365300	      0.89231600	      0.43359700	     -0.41131700	      0.73429900	      0.42875700	     -0.23692800	      0.89974800	      0.39493900	     -0.24936600	      0.71940800	      0.05776200	     -0.15622500	      0.70478800	      0.11420300	     -0.35643200	      0.73400000	      0.07448300	     -0.22892200	      0.72677800	      0.12500700	     -0.28052400	      0.67514000	      1.34855000	     -0.19612000	      0.79886200	      1.27121800	     -0.16827200	      0.79381200	      1.27280200	     -0.24975600	      0.77837400	      1.26837900	     -0.21996800	      0.82393200	      1.19054600	     -0.22329700	      0.89835800	      0.55045700	     -0.06368600	      0.98609700	      0.65662000	     -0.30231100	      0.86391600	      0.57765400	     -0.08393500	      0.93756400	      0.65067500	     -0.31420000	      0.83532700	      0.50723600	     -0.10160200	      0.95333100	      0.57874200	     -0.31890300	      0.81372100	      0.20020800	     -0.15256400	      0.74884900	      0.20919600	     -0.43005900	      0.76760100	      0.20932100	     -0.16369300	      0.75767700	      0.22023200	     -0.38330100	      0.83703100	      0.04374200	     -0.18495500	      0.80603900	      0.06533600	     -0.34412900	    -16.48672163	    801.39793175	    -27.14465333	      0.77712866	      0.00000000	     -0.17404123	      0.00000000	      0.00000000	      0.00000000	      0.44984427	      0.00000000	     -0.28338339	      0.00000000	      0.88075793	      0.00000000	      0.00000000	      0.00000000	      0.00000000	      0.76190031	      0.77019525	     -0.19725284	      0.74267602	      0.77698213	     -0.11814395	      0.74234718	      0.77270657	     -0.27371398	      0.74049139	      0.42088854	     -0.16455157	      0.89315075	      0.42051983	     -0.34102792	      0.72989899	      0.06038717	     -0.19317521	      0.72111160	      0.10748155	     -0.32109621	      0.87148798	      0.84479767	     -0.19812414	      0.87175328	      0.84824759	     -0.07259750	      0.87122262	      0.84134775	     -0.32365078	      0.62798584	      0.92293394	     -0.16559799	      0.62460124	      0.91825902	     -0.22046745	      0.73992896	      0.41165215	     -0.09365290	      0.89231575	      0.43359670	     -0.41131696	      0.73429900	      0.42875707	     -0.23692764	      0.89974815	      0.39493927	     -0.24936602	      0.71940792	      0.05776163	     -0.15622532	      0.70478803	      0.11420272	     -0.35643202	      0.73399961	      0.07448347	     -0.22892165	      0.72677839	      0.12500708	     -0.28052413	      0.67514020	      1.34855032	     -0.19611950	      0.79886174	      1.27121806	     -0.16827188	      0.79381233	      1.27280176	     -0.24975611	      0.77837420	      1.26837945	     -0.21996751	      0.82393181	      1.19054592	     -0.22329746	      0.89835835	      0.55045694	     -0.06368611	      0.98609680	      0.65662038	     -0.30231079	      0.86391586	      0.57765394	     -0.08393467	      0.93756449	      0.65067536	     -0.31419966	      0.83532697	      0.50723618	     -0.10160229	      0.95333117	      0.57874233	     -0.31890300	      0.81372142	      0.20020787	     -0.15256362	      0.74884856	      0.20919551	     -0.43005854	      0.76760083	      0.20932110	     -0.16369326	      0.75767708	      0.22023240	     -0.38330150	      0.83703125	      0.04374193	     -0.18495512	      0.80603886	      0.06533574	     -0.34412864
      1.60000000	      0.84302415	      0.83501276	     -0.18750940	     -5.77816207	     -2.72103237	     -0.32926028	      4.28785074	      9.29800259	     -0.58265340	     -1.44905353	     -0.75184040	     28.76138930	     -9.92406607	      4.21320074	    -50.67714603	      8.21872085	      7.32963454	     -0.09909643	     13.72945232	      0.00000000	      0.00000000	      0.00000000	      0.00000000	      0.89869332	      0.82350887	     -0.06974895	      0.89749537	      0.81103264	     -0.31534999	      0.85640502	      0.83366242	     -0.18743220	      0.66844232	      0.92947154	     -0.16329216	      0.66379858	      0.92544054	     -0.21819283	      0.76898989	      0.78256211	     -0.10476258	      0.76914038	      0.77489210	     -0.26500697	      0.76906513	      0.77872711	     -0.18488477	      0.75913126	      0.39440414	     -0.08956240	      0.74208849	      0.42051101	     -0.23129232	      0.92093783	      0.54402478	     -0.07182789	      0.88304780	      0.56957355	     -0.08902461	      0.85422164	      0.49904553	     -0.10498289	      0.72548219	      0.04058236	     -0.14315693	      0.74345052	      0.05537936	     -0.21628193	      0.82460397	      0.18510051	     -0.14411672	      0.77961578	      0.19452260	     -0.15702454	      0.75565458	      0.41865869	     -0.14668551	      0.73698976	      0.05320475	     -0.18886815	      0.84370092	      0.02032046	     -0.17100788	      0.90901342	      0.43802398	     -0.38018659	      0.91683344	      0.40575819	     -0.23532776	      1.00816653	      0.66290198	     -0.29884495	      0.95834624	      0.65989175	     -0.30421777	      0.96971042	      0.58721933	     -0.31114826	      0.71676351	      0.11878524	     -0.39968456	      0.74216303	      0.11347920	     -0.32405555	      0.75441520	      0.23310488	     -0.44861958	      0.76515626	      0.23392212	     -0.40092984	      0.91565841	      0.43493429	     -0.31277231	      0.74249678	      0.11304435	     -0.35844783	      0.82534298	      0.06322627	     -0.39004813	      0.81063908	      1.28017845	     -0.17174498	      0.79961386	      1.28001582	     -0.25293011	      0.66640788	      1.32152830	     -0.19138640	      0.78815545	      1.27153648	     -0.22230154	      0.85271649	      1.20914987	     -0.22973588	      0.76495500	      0.77020700	     -0.19716000	      0.74558900	      0.77698100	     -0.11811600	      0.74552700	      0.77275100	     -0.27368800	      0.74204000	      0.42083800	     -0.16466000	      0.89929000	      0.42133700	     -0.33937200	      0.73007500	      0.06045200	     -0.19331300	      0.73874000	      0.10255900	     -0.32116800	      0.87462500	      0.84466000	     -0.19785000	      0.87467400	      0.84807200	     -0.07233700	      0.87457500	      0.84124700	     -0.32336400	      0.63113100	      0.92311200	     -0.16551500	      0.62784000	      0.91844300	     -0.22041400	      0.74123500	      0.41158100	     -0.09376600	      0.89923700	      0.43445100	     -0.40965900	      0.73397200	      0.42942700	     -0.23667700	      0.90296700	      0.39601800	     -0.24845100	      0.71951300	      0.05786700	     -0.15638100	      0.72215300	      0.10889800	     -0.35645200	      0.73344700	      0.07501900	     -0.22913300	      0.74409400	      0.11988800	     -0.28054600	      0.67886100	      1.34884600	     -0.19609600	      0.80270700	      1.27117500	     -0.16790400	      0.79750800	      1.27287100	     -0.24984000	      0.78213800	      1.26838600	     -0.21991200	      0.82755500	      1.19053300	     -0.22329200	      0.90010100	      0.54992300	     -0.06330400	      0.98988700	      0.65793500	     -0.29939100	      0.86482300	      0.57734000	     -0.08344800	      0.94205700	      0.65192800	     -0.31211400	      0.83596900	      0.50663000	     -0.10158300	      0.95796700	      0.57985500	     -0.31659900	      0.81419300	      0.19985200	     -0.15263300	      0.76275000	      0.20593600	     -0.42963000	      0.76776600	      0.20945700	     -0.16341200	      0.77137900	      0.21701900	     -0.38268700	      0.83698800	      0.04370500	     -0.18486800	      0.82528900	      0.06446500	     -0.34425500	    -13.84594351	    801.85929841	    -26.83743253	      0.77778296	      0.00000000	     -0.17395987	      0.00000000	      0.00000000	      0.00000000	      0.45073547	      0.00000000	     -0.28285306	      0.00000000	      1.05118237	      0.00000000	      0.00000000	      0.00000000	      0.00000000	      0.76495492	      0.77020741	     -0.19715998	      0.74558872	      0.77698112	     -0.11811619	      0.74552733	      0.77275145	     -0.27368781	      0.74203998	      0.42083770	     -0.16465954	      0.89929026	      0.42133698	     -0.33937246	      0.73007542	      0.06045245	     -0.19331303	      0.73873961	      0.10255928	     -0.32116818	      0.87462491	      0.84465975	     -0.19785048	      0.87467444	      0.84807223	     -0.07233653	      0.87457538	      0.84124726	     -0.32336444	      0.63113087	      0.92311156	     -0.16551512	      0.62783998	      0.91844296	     -0.22041444	      0.74123549	      0.41158083	     -0.09376588	      0.89923650	      0.43445113	     -0.40965948	      0.73397243	      0.42942730	     -0.23667666	      0.90296668	      0.39601806	     -0.24845128	      0.71951342	      0.05786669	     -0.15638056	      0.72215289	      0.10889815	     -0.35645202	      0.73344749	      0.07501879	     -0.22913326	      0.74409395	      0.11988769	     -0.28054556	      0.67886150	      1.34884560	     -0.19609591	      0.80270737	      1.27117479	     -0.16790418	      0.79750848	      1.27287054	     -0.24984020	      0.78213817	      1.26838648	     -0.21991198	      0.82755542	      1.19053280	     -0.22329159	      0.90010130	      0.54992300	     -0.06330362	      0.98988742	      0.65793520	     -0.29939097	      0.86482286	      0.57733959	     -0.08344835	      0.94205743	      0.65192777	     -0.31211391	      0.83596939	      0.50663012	     -0.10158303	      0.95796692	      0.57985473	     -0.31659865	      0.81419325	      0.19985187	     -0.15263286	      0.76275039	      0.20593597	     -0.42963031	      0.76776606	      0.20945697	     -0.16341190	      0.77137887	      0.21701911	     -0.38268730	      0.83698773	      0.04370487	     -0.18486769	      0.82528889	      0.06446460	     -0.34425479
